<?xml version="1.0" standalone="no"?>
<!DOCTYPE svg PUBLIC "-//W3C//DTD SVG 20010904//EN"
 "http://www.w3.org/TR/2001/REC-SVG-20010904/DTD/svg10.dtd">
<svg version="1.0" xmlns="http://www.w3.org/2000/svg"
 width="512.000000pt" height="512.000000pt" viewBox="0 0 512.000000 512.000000"
 preserveAspectRatio="xMidYMid meet">

<g transform="translate(0.000000,512.000000) scale(0.100000,-0.100000)"
fill="#000000" stroke="none">
<path d="M941 4914 c-222 -59 -372 -291 -332 -513 41 -228 222 -381 451 -381
221 0 398 142 446 357 26 119 1 249 -66 348 -37 54 -118 129 -168 154 -97 50
-226 63 -331 35z"/>
<path d="M3941 4914 c-222 -59 -372 -291 -332 -513 41 -228 222 -381 451 -381
221 0 398 142 446 357 26 119 1 249 -66 348 -37 54 -118 129 -168 154 -97 50
-226 63 -331 35z"/>
<path d="M2401 4874 c-139 -47 -232 -129 -296 -259 -112 -229 -37 -502 176
-644 163 -109 389 -110 555 -3 165 107 257 312 225 503 -51 311 -366 503 -660
403z"/>
<path d="M975 3909 c-201 -15 -396 -106 -548 -256 -112 -110 -197 -252 -237
-395 -24 -87 -25 -112 -4 -132 14 -14 85 -16 635 -16 581 0 620 1 626 18 54
158 139 310 235 416 l58 64 -54 52 c-74 71 -137 115 -239 165 -141 70 -297 97
-472 84z"/>
<path d="M3975 3909 c-197 -15 -394 -106 -542 -250 l-53 -51 52 -57 c91 -99
184 -256 227 -384 l18 -52 621 -3 c554 -2 622 0 636 14 20 19 20 40 0 118 -36
139 -127 296 -235 405 -192 191 -443 281 -724 260z"/>
<path d="M2460 3780 c-392 -39 -730 -309 -853 -681 -38 -113 -43 -165 -22
-189 18 -20 37 -20 975 -20 938 0 957 0 975 20 21 24 16 76 -22 189 -146 440
-589 727 -1053 681z"/>
<path d="M160 2427 l0 -163 197 -76 c168 -64 198 -78 204 -99 47 -161 94 -281
160 -417 52 -105 78 -169 74 -182 -3 -10 -41 -97 -84 -193 l-78 -175 231 -230
231 -230 115 52 c63 28 149 67 191 85 l76 33 164 -80 c137 -67 257 -113 418
-161 21 -6 35 -36 100 -204 l76 -197 325 0 325 0 76 197 76 197 104 32 c149
44 224 75 370 150 l130 67 77 -33 c42 -19 129 -58 192 -86 l115 -52 231 230
231 230 -78 175 c-43 96 -81 183 -84 194 -5 13 18 70 69 172 47 92 95 211 125
301 l49 150 196 75 196 75 0 163 0 163 -633 0 -634 0 -6 -92 c-13 -194 -99
-426 -218 -583 -153 -204 -378 -356 -624 -422 -92 -25 -116 -27 -285 -27 -169
0 -193 2 -285 27 -140 38 -317 128 -430 220 -234 190 -392 492 -412 785 l-6
92 -634 0 -633 0 0 -163z"/>
<path d="M1833 2518 c7 -92 46 -214 94 -298 48 -83 179 -214 263 -263 196
-114 463 -129 666 -37 240 108 412 346 431 598 l6 72 -733 0 -733 0 6 -72z"/>
</g>
</svg>
